<?xml version="1.0" encoding="UTF-8"?>
<svg xmlns="http://www.w3.org/2000/svg" xmlns:xlink="http://www.w3.org/1999/xlink" width="2501" height="2501" viewBox="0 0 2501 2501">
<path fill-rule="evenodd" fill="rgb(30.200195%, 30.200195%, 30.200195%)" fill-opacity="1" d="M 1213.390625 1150.050781 C 1197.398438 1150.050781 1184.441406 1163.011719 1184.441406 1179 C 1184.441406 1194.980469 1197.398438 1207.941406 1213.390625 1207.941406 C 1229.378906 1207.941406 1242.339844 1194.980469 1242.339844 1179 C 1242.339844 1163.011719 1229.378906 1150.050781 1213.390625 1150.050781 "/>
<path fill-rule="evenodd" fill="rgb(30.200195%, 30.200195%, 30.200195%)" fill-opacity="1" d="M 1213.390625 1292.660156 C 1197.398438 1292.660156 1184.441406 1305.621094 1184.441406 1321.609375 C 1184.441406 1337.601562 1197.398438 1350.558594 1213.390625 1350.558594 C 1229.378906 1350.558594 1242.339844 1337.601562 1242.339844 1321.609375 C 1242.339844 1305.621094 1229.378906 1292.660156 1213.390625 1292.660156 "/>
<path fill-rule="evenodd" fill="rgb(30.200195%, 30.200195%, 30.200195%)" fill-opacity="1" d="M 1287.398438 1149.761719 C 1271.359375 1149.761719 1258.371094 1162.761719 1258.371094 1178.789062 C 1258.371094 1194.828125 1271.359375 1207.820312 1287.398438 1207.820312 C 1303.429688 1207.820312 1316.429688 1194.828125 1316.429688 1178.789062 C 1316.429688 1162.761719 1303.429688 1149.761719 1287.398438 1149.761719 "/>
<path fill-rule="evenodd" fill="rgb(30.200195%, 30.200195%, 30.200195%)" fill-opacity="1" d="M 1287.398438 1292.78125 C 1271.359375 1292.78125 1258.371094 1305.78125 1258.371094 1321.808594 C 1258.371094 1337.839844 1271.359375 1350.839844 1287.398438 1350.839844 C 1303.429688 1350.839844 1316.429688 1337.839844 1316.429688 1321.808594 C 1316.429688 1305.78125 1303.429688 1292.78125 1287.398438 1292.78125 "/>
<path fill-rule="evenodd" fill="rgb(30.200195%, 30.200195%, 30.200195%)" fill-opacity="1" d="M 1358.910156 1149.761719 C 1342.871094 1149.761719 1329.878906 1162.761719 1329.878906 1178.789062 C 1329.878906 1194.828125 1342.871094 1207.820312 1358.910156 1207.820312 C 1374.941406 1207.820312 1387.941406 1194.828125 1387.941406 1178.789062 C 1387.941406 1162.761719 1374.941406 1149.761719 1358.910156 1149.761719 "/>
<path fill-rule="evenodd" fill="rgb(30.200195%, 30.200195%, 30.200195%)" fill-opacity="1" d="M 1358.910156 1292.78125 C 1342.871094 1292.78125 1329.878906 1305.78125 1329.878906 1321.808594 C 1329.878906 1337.839844 1342.871094 1350.839844 1358.910156 1350.839844 C 1374.941406 1350.839844 1387.941406 1337.839844 1387.941406 1321.808594 C 1387.941406 1305.78125 1374.941406 1292.78125 1358.910156 1292.78125 "/>
<path fill-rule="evenodd" fill="rgb(30.200195%, 30.200195%, 30.200195%)" fill-opacity="1" d="M 1430.421875 1149.761719 C 1414.378906 1149.761719 1401.390625 1162.761719 1401.390625 1178.789062 C 1401.390625 1194.828125 1414.378906 1207.820312 1430.421875 1207.820312 C 1446.449219 1207.820312 1459.449219 1194.828125 1459.449219 1178.789062 C 1459.449219 1162.761719 1446.449219 1149.761719 1430.421875 1149.761719 "/>
<path fill-rule="evenodd" fill="rgb(30.200195%, 30.200195%, 30.200195%)" fill-opacity="1" d="M 1430.421875 1292.78125 C 1414.378906 1292.78125 1401.390625 1305.78125 1401.390625 1321.808594 C 1401.390625 1337.839844 1414.378906 1350.839844 1430.421875 1350.839844 C 1446.449219 1350.839844 1459.449219 1337.839844 1459.449219 1321.808594 C 1459.449219 1305.78125 1446.449219 1292.78125 1430.421875 1292.78125 "/>
<path fill-rule="evenodd" fill="rgb(30.200195%, 30.200195%, 30.200195%)" fill-opacity="1" d="M 1501.929688 1149.761719 C 1485.890625 1149.761719 1472.898438 1162.761719 1472.898438 1178.789062 C 1472.898438 1194.828125 1485.890625 1207.820312 1501.929688 1207.820312 C 1517.960938 1207.820312 1530.949219 1194.828125 1530.949219 1178.789062 C 1530.949219 1162.761719 1517.960938 1149.761719 1501.929688 1149.761719 "/>
<path fill-rule="evenodd" fill="rgb(30.200195%, 30.200195%, 30.200195%)" fill-opacity="1" d="M 1501.929688 1292.78125 C 1485.890625 1292.78125 1472.898438 1305.78125 1472.898438 1321.808594 C 1472.898438 1337.839844 1485.890625 1350.839844 1501.929688 1350.839844 C 1517.960938 1350.839844 1530.949219 1337.839844 1530.949219 1321.808594 C 1530.949219 1305.78125 1517.960938 1292.78125 1501.929688 1292.78125 "/>
<path fill-rule="evenodd" fill="rgb(30.200195%, 30.200195%, 30.200195%)" fill-opacity="1" d="M 1287.398438 1221.269531 C 1271.359375 1221.269531 1258.371094 1234.269531 1258.371094 1250.300781 C 1258.371094 1266.339844 1271.359375 1279.328125 1287.398438 1279.328125 C 1303.429688 1279.328125 1316.429688 1266.339844 1316.429688 1250.300781 C 1316.429688 1234.269531 1303.429688 1221.269531 1287.398438 1221.269531 "/>
<path fill-rule="evenodd" fill="rgb(30.200195%, 30.200195%, 30.200195%)" fill-opacity="1" d="M 1358.910156 1221.269531 C 1342.871094 1221.269531 1329.878906 1234.269531 1329.878906 1250.300781 C 1329.878906 1266.339844 1342.871094 1279.328125 1358.910156 1279.328125 C 1374.941406 1279.328125 1387.941406 1266.339844 1387.941406 1250.300781 C 1387.941406 1234.269531 1374.941406 1221.269531 1358.910156 1221.269531 "/>
<path fill-rule="evenodd" fill="rgb(30.200195%, 30.200195%, 30.200195%)" fill-opacity="1" d="M 1430.421875 1221.269531 C 1414.378906 1221.269531 1401.390625 1234.269531 1401.390625 1250.300781 C 1401.390625 1266.339844 1414.378906 1279.328125 1430.421875 1279.328125 C 1446.449219 1279.328125 1459.449219 1266.339844 1459.449219 1250.300781 C 1459.449219 1234.269531 1446.449219 1221.269531 1430.421875 1221.269531 "/>
<path fill-rule="evenodd" fill="rgb(30.200195%, 30.200195%, 30.200195%)" fill-opacity="1" d="M 1501.929688 1221.269531 C 1485.890625 1221.269531 1472.898438 1234.269531 1472.898438 1250.300781 C 1472.898438 1266.339844 1485.890625 1279.328125 1501.929688 1279.328125 C 1517.960938 1279.328125 1530.949219 1266.339844 1530.949219 1250.300781 C 1530.949219 1234.269531 1517.960938 1221.269531 1501.929688 1221.269531 "/>
<path fill-rule="evenodd" fill="rgb(30.200195%, 30.200195%, 30.200195%)" fill-opacity="1" d="M 1573.429688 1221.269531 C 1557.398438 1221.269531 1544.410156 1234.269531 1544.410156 1250.300781 C 1544.410156 1266.339844 1557.398438 1279.328125 1573.429688 1279.328125 C 1589.46875 1279.328125 1602.460938 1266.339844 1602.460938 1250.300781 C 1602.460938 1234.269531 1589.46875 1221.269531 1573.429688 1221.269531 "/>
<path fill-rule="evenodd" fill="rgb(30.200195%, 30.200195%, 30.200195%)" fill-opacity="1" d="M 1287.398438 935.238281 C 1271.359375 935.238281 1258.371094 948.230469 1258.371094 964.269531 C 1258.371094 980.300781 1271.359375 993.289062 1287.398438 993.289062 C 1303.429688 993.289062 1316.429688 980.300781 1316.429688 964.269531 C 1316.429688 948.230469 1303.429688 935.238281 1287.398438 935.238281 "/>
<path fill-rule="evenodd" fill="rgb(30.200195%, 30.200195%, 30.200195%)" fill-opacity="1" d="M 1287.398438 1078.25 C 1271.359375 1078.25 1258.371094 1091.25 1258.371094 1107.28125 C 1258.371094 1123.320312 1271.359375 1136.308594 1287.398438 1136.308594 C 1303.429688 1136.308594 1316.429688 1123.320312 1316.429688 1107.28125 C 1316.429688 1091.25 1303.429688 1078.25 1287.398438 1078.25 "/>
<path fill-rule="evenodd" fill="rgb(30.200195%, 30.200195%, 30.200195%)" fill-opacity="1" d="M 1358.910156 1078.25 C 1342.871094 1078.25 1329.878906 1091.25 1329.878906 1107.28125 C 1329.878906 1123.320312 1342.871094 1136.308594 1358.910156 1136.308594 C 1374.941406 1136.308594 1387.941406 1123.320312 1387.941406 1107.28125 C 1387.941406 1091.25 1374.941406 1078.25 1358.910156 1078.25 "/>
<path fill-rule="evenodd" fill="rgb(30.200195%, 30.200195%, 30.200195%)" fill-opacity="1" d="M 1430.421875 1078.25 C 1414.378906 1078.25 1401.390625 1091.25 1401.390625 1107.28125 C 1401.390625 1123.320312 1414.378906 1136.308594 1430.421875 1136.308594 C 1446.449219 1136.308594 1459.449219 1123.320312 1459.449219 1107.28125 C 1459.449219 1091.25 1446.449219 1078.25 1430.421875 1078.25 "/>
<path fill-rule="evenodd" fill="rgb(30.200195%, 30.200195%, 30.200195%)" fill-opacity="1" d="M 1287.398438 1006.75 C 1271.359375 1006.75 1258.371094 1019.738281 1258.371094 1035.769531 C 1258.371094 1051.808594 1271.359375 1064.800781 1287.398438 1064.800781 C 1303.429688 1064.800781 1316.429688 1051.808594 1316.429688 1035.769531 C 1316.429688 1019.738281 1303.429688 1006.75 1287.398438 1006.75 "/>
<path fill-rule="evenodd" fill="rgb(30.200195%, 30.200195%, 30.200195%)" fill-opacity="1" d="M 1358.910156 1006.75 C 1342.871094 1006.75 1329.878906 1019.738281 1329.878906 1035.769531 C 1329.878906 1051.808594 1342.871094 1064.800781 1358.910156 1064.800781 C 1374.941406 1064.800781 1387.941406 1051.808594 1387.941406 1035.769531 C 1387.941406 1019.738281 1374.941406 1006.75 1358.910156 1006.75 "/>
<path fill-rule="evenodd" fill="rgb(30.200195%, 30.200195%, 30.200195%)" fill-opacity="1" d="M 1215.890625 863.730469 C 1199.851562 863.730469 1186.859375 876.71875 1186.859375 892.761719 C 1186.859375 908.789062 1199.851562 921.789062 1215.890625 921.789062 C 1231.921875 921.789062 1244.921875 908.789062 1244.921875 892.761719 C 1244.921875 876.71875 1231.921875 863.730469 1215.890625 863.730469 "/>
<path fill-rule="evenodd" fill="rgb(30.200195%, 30.200195%, 30.200195%)" fill-opacity="1" d="M 1215.890625 1006.75 C 1199.851562 1006.75 1186.859375 1019.738281 1186.859375 1035.769531 C 1186.859375 1051.808594 1199.851562 1064.800781 1215.890625 1064.800781 C 1231.921875 1064.800781 1244.921875 1051.808594 1244.921875 1035.769531 C 1244.921875 1019.738281 1231.921875 1006.75 1215.890625 1006.75 "/>
<path fill-rule="evenodd" fill="rgb(30.200195%, 30.200195%, 30.200195%)" fill-opacity="1" d="M 1215.890625 1078.25 C 1199.851562 1078.25 1186.859375 1091.25 1186.859375 1107.28125 C 1186.859375 1123.320312 1199.851562 1136.308594 1215.890625 1136.308594 C 1231.921875 1136.308594 1244.921875 1123.320312 1244.921875 1107.28125 C 1244.921875 1091.25 1231.921875 1078.25 1215.890625 1078.25 "/>
<path fill-rule="evenodd" fill="rgb(30.200195%, 30.200195%, 30.200195%)" fill-opacity="1" d="M 1215.890625 935.238281 C 1199.851562 935.238281 1186.859375 948.230469 1186.859375 964.269531 C 1186.859375 980.300781 1199.851562 993.289062 1215.890625 993.289062 C 1231.921875 993.289062 1244.921875 980.300781 1244.921875 964.269531 C 1244.921875 948.230469 1231.921875 935.238281 1215.890625 935.238281 "/>
<path fill-rule="evenodd" fill="rgb(30.200195%, 30.200195%, 30.200195%)" fill-opacity="1" d="M 1287.398438 1565.085938 C 1271.359375 1565.085938 1258.371094 1552.085938 1258.371094 1536.054688 C 1258.371094 1520.023438 1271.359375 1507.023438 1287.398438 1507.023438 C 1303.429688 1507.023438 1316.429688 1520.023438 1316.429688 1536.054688 C 1316.429688 1552.085938 1303.429688 1565.085938 1287.398438 1565.085938 "/>
<path fill-rule="evenodd" fill="rgb(30.200195%, 30.200195%, 30.200195%)" fill-opacity="1" d="M 1287.398438 1422.070312 C 1271.359375 1422.070312 1258.371094 1409.070312 1258.371094 1393.039062 C 1258.371094 1377 1271.359375 1364.011719 1287.398438 1364.011719 C 1303.429688 1364.011719 1316.429688 1377 1316.429688 1393.039062 C 1316.429688 1409.070312 1303.429688 1422.070312 1287.398438 1422.070312 "/>
<path fill-rule="evenodd" fill="rgb(30.200195%, 30.200195%, 30.200195%)" fill-opacity="1" d="M 1358.910156 1422.070312 C 1342.871094 1422.070312 1329.878906 1409.070312 1329.878906 1393.039062 C 1329.878906 1377 1342.871094 1364.011719 1358.910156 1364.011719 C 1374.941406 1364.011719 1387.941406 1377 1387.941406 1393.039062 C 1387.941406 1409.070312 1374.941406 1422.070312 1358.910156 1422.070312 "/>
<path fill-rule="evenodd" fill="rgb(30.200195%, 30.200195%, 30.200195%)" fill-opacity="1" d="M 1430.421875 1422.070312 C 1414.378906 1422.070312 1401.390625 1409.070312 1401.390625 1393.039062 C 1401.390625 1377 1414.378906 1364.011719 1430.421875 1364.011719 C 1446.449219 1364.011719 1459.449219 1377 1459.449219 1393.039062 C 1459.449219 1409.070312 1446.449219 1422.070312 1430.421875 1422.070312 "/>
<path fill-rule="evenodd" fill="rgb(30.200195%, 30.200195%, 30.200195%)" fill-opacity="1" d="M 1287.398438 1493.578125 C 1271.359375 1493.578125 1258.371094 1480.578125 1258.371094 1464.550781 C 1258.371094 1448.511719 1271.359375 1435.519531 1287.398438 1435.519531 C 1303.429688 1435.519531 1316.429688 1448.511719 1316.429688 1464.550781 C 1316.429688 1480.578125 1303.429688 1493.578125 1287.398438 1493.578125 "/>
<path fill-rule="evenodd" fill="rgb(30.200195%, 30.200195%, 30.200195%)" fill-opacity="1" d="M 1358.910156 1493.578125 C 1342.871094 1493.578125 1329.878906 1480.578125 1329.878906 1464.550781 C 1329.878906 1448.511719 1342.871094 1435.519531 1358.910156 1435.519531 C 1374.941406 1435.519531 1387.941406 1448.511719 1387.941406 1464.550781 C 1387.941406 1480.578125 1374.941406 1493.578125 1358.910156 1493.578125 "/>
<path fill-rule="evenodd" fill="rgb(30.200195%, 30.200195%, 30.200195%)" fill-opacity="1" d="M 1215.890625 1636.59375 C 1199.851562 1636.59375 1186.859375 1623.597656 1186.859375 1607.5625 C 1186.859375 1591.53125 1199.851562 1578.535156 1215.890625 1578.535156 C 1231.921875 1578.535156 1244.921875 1591.53125 1244.921875 1607.5625 C 1244.921875 1623.597656 1231.921875 1636.59375 1215.890625 1636.59375 "/>
<path fill-rule="evenodd" fill="rgb(30.200195%, 30.200195%, 30.200195%)" fill-opacity="1" d="M 1215.890625 1493.578125 C 1199.851562 1493.578125 1186.859375 1480.578125 1186.859375 1464.550781 C 1186.859375 1448.511719 1199.851562 1435.519531 1215.890625 1435.519531 C 1231.921875 1435.519531 1244.921875 1448.511719 1244.921875 1464.550781 C 1244.921875 1480.578125 1231.921875 1493.578125 1215.890625 1493.578125 "/>
<path fill-rule="evenodd" fill="rgb(30.200195%, 30.200195%, 30.200195%)" fill-opacity="1" d="M 1215.890625 1422.070312 C 1199.851562 1422.070312 1186.859375 1409.070312 1186.859375 1393.039062 C 1186.859375 1377 1199.851562 1364.011719 1215.890625 1364.011719 C 1231.921875 1364.011719 1244.921875 1377 1244.921875 1393.039062 C 1244.921875 1409.070312 1231.921875 1422.070312 1215.890625 1422.070312 "/>
<path fill-rule="evenodd" fill="rgb(30.200195%, 30.200195%, 30.200195%)" fill-opacity="1" d="M 1215.890625 1565.085938 C 1199.851562 1565.085938 1186.859375 1552.085938 1186.859375 1536.054688 C 1186.859375 1520.023438 1199.851562 1507.023438 1215.890625 1507.023438 C 1231.921875 1507.023438 1244.921875 1520.023438 1244.921875 1536.054688 C 1244.921875 1552.085938 1231.921875 1565.085938 1215.890625 1565.085938 "/>
<path fill-rule="evenodd" fill="rgb(30.200195%, 30.200195%, 30.200195%)" fill-opacity="1" d="M 999.46875 1506.441406 C 983.484375 1506.441406 970.523438 1519.398438 970.523438 1535.386719 C 970.523438 1551.375 983.484375 1564.335938 999.46875 1564.335938 C 1015.460938 1564.335938 1028.421875 1551.375 1028.421875 1535.386719 C 1028.421875 1519.398438 1015.460938 1506.441406 999.46875 1506.441406 "/>
<path fill-rule="evenodd" fill="rgb(30.200195%, 30.200195%, 30.200195%)" fill-opacity="1" d="M 1070.78125 1506.441406 C 1054.789062 1506.441406 1041.828125 1519.398438 1041.828125 1535.386719 C 1041.828125 1551.375 1054.789062 1564.335938 1070.78125 1564.335938 C 1086.761719 1564.335938 1099.71875 1551.375 1099.71875 1535.386719 C 1099.71875 1519.398438 1086.761719 1506.441406 1070.78125 1506.441406 "/>
<path fill-rule="evenodd" fill="rgb(30.200195%, 30.200195%, 30.200195%)" fill-opacity="1" d="M 1142.078125 1363.828125 C 1126.101562 1363.828125 1113.140625 1376.789062 1113.140625 1392.769531 C 1113.140625 1408.761719 1126.101562 1421.71875 1142.078125 1421.71875 C 1158.070312 1421.71875 1171.03125 1408.761719 1171.03125 1392.769531 C 1171.03125 1376.789062 1158.070312 1363.828125 1142.078125 1363.828125 "/>
<path fill-rule="evenodd" fill="rgb(30.200195%, 30.200195%, 30.200195%)" fill-opacity="1" d="M 1142.078125 1506.441406 C 1126.101562 1506.441406 1113.140625 1519.398438 1113.140625 1535.386719 C 1113.140625 1551.375 1126.101562 1564.335938 1142.078125 1564.335938 C 1158.070312 1564.335938 1171.03125 1551.375 1171.03125 1535.386719 C 1171.03125 1519.398438 1158.070312 1506.441406 1142.078125 1506.441406 "/>
<path fill-rule="evenodd" fill="rgb(30.200195%, 30.200195%, 30.200195%)" fill-opacity="1" d="M 1070.78125 1435.128906 C 1054.789062 1435.128906 1041.828125 1448.089844 1041.828125 1464.078125 C 1041.828125 1480.070312 1054.789062 1493.03125 1070.78125 1493.03125 C 1086.761719 1493.03125 1099.71875 1480.070312 1099.71875 1464.078125 C 1099.71875 1448.089844 1086.761719 1435.128906 1070.78125 1435.128906 "/>
<path fill-rule="evenodd" fill="rgb(30.200195%, 30.200195%, 30.200195%)" fill-opacity="1" d="M 1142.078125 1435.128906 C 1126.101562 1435.128906 1113.140625 1448.089844 1113.140625 1464.078125 C 1113.140625 1480.070312 1126.101562 1493.03125 1142.078125 1493.03125 C 1158.070312 1493.03125 1171.03125 1480.070312 1171.03125 1464.078125 C 1171.03125 1448.089844 1158.070312 1435.128906 1142.078125 1435.128906 "/>
<path fill-rule="evenodd" fill="rgb(30.200195%, 30.200195%, 30.200195%)" fill-opacity="1" d="M 1142.078125 1078.601562 C 1126.101562 1078.601562 1113.140625 1091.558594 1113.140625 1107.550781 C 1113.140625 1123.53125 1126.101562 1136.488281 1142.078125 1136.488281 C 1158.070312 1136.488281 1171.03125 1123.53125 1171.03125 1107.550781 C 1171.03125 1091.558594 1158.070312 1078.601562 1142.078125 1078.601562 "/>
<path fill-rule="evenodd" fill="rgb(30.200195%, 30.200195%, 30.200195%)" fill-opacity="1" d="M 1070.78125 1007.289062 C 1054.789062 1007.289062 1041.828125 1020.25 1041.828125 1036.238281 C 1041.828125 1052.230469 1054.789062 1065.191406 1070.78125 1065.191406 C 1086.761719 1065.191406 1099.71875 1052.230469 1099.71875 1036.238281 C 1099.71875 1020.25 1086.761719 1007.289062 1070.78125 1007.289062 "/>
<path fill-rule="evenodd" fill="rgb(30.200195%, 30.200195%, 30.200195%)" fill-opacity="1" d="M 1142.078125 1007.289062 C 1126.101562 1007.289062 1113.140625 1020.25 1113.140625 1036.238281 C 1113.140625 1052.230469 1126.101562 1065.191406 1142.078125 1065.191406 C 1158.070312 1065.191406 1171.03125 1052.230469 1171.03125 1036.238281 C 1171.03125 1020.25 1158.070312 1007.289062 1142.078125 1007.289062 "/>
<path fill-rule="evenodd" fill="rgb(30.200195%, 30.200195%, 30.200195%)" fill-opacity="1" d="M 999.46875 935.988281 C 983.484375 935.988281 970.523438 948.949219 970.523438 964.929688 C 970.523438 980.921875 983.484375 993.878906 999.46875 993.878906 C 1015.460938 993.878906 1028.421875 980.921875 1028.421875 964.929688 C 1028.421875 948.949219 1015.460938 935.988281 999.46875 935.988281 "/>
<path fill-rule="evenodd" fill="rgb(30.200195%, 30.200195%, 30.200195%)" fill-opacity="1" d="M 1070.78125 935.988281 C 1054.789062 935.988281 1041.828125 948.949219 1041.828125 964.929688 C 1041.828125 980.921875 1054.789062 993.878906 1070.78125 993.878906 C 1086.761719 993.878906 1099.71875 980.921875 1099.71875 964.929688 C 1099.71875 948.949219 1086.761719 935.988281 1070.78125 935.988281 "/>
<path fill-rule="evenodd" fill="rgb(30.200195%, 30.200195%, 30.200195%)" fill-opacity="1" d="M 1142.078125 935.988281 C 1126.101562 935.988281 1113.140625 948.949219 1113.140625 964.929688 C 1113.140625 980.921875 1126.101562 993.878906 1142.078125 993.878906 C 1158.070312 993.878906 1171.03125 980.921875 1171.03125 964.929688 C 1171.03125 948.949219 1158.070312 935.988281 1142.078125 935.988281 "/>
<path fill-rule="evenodd" fill="rgb(30.200195%, 30.200195%, 30.200195%)" fill-opacity="1" d="M 928.164062 864.679688 C 912.175781 864.679688 899.214844 877.640625 899.214844 893.628906 C 899.214844 909.609375 912.175781 922.570312 928.164062 922.570312 C 944.148438 922.570312 957.109375 909.609375 957.109375 893.628906 C 957.109375 877.640625 944.148438 864.679688 928.164062 864.679688 "/>
<path fill-rule="evenodd" fill="rgb(30.200195%, 30.200195%, 30.200195%)" fill-opacity="1" d="M 999.46875 864.679688 C 983.484375 864.679688 970.523438 877.640625 970.523438 893.628906 C 970.523438 909.609375 983.484375 922.570312 999.46875 922.570312 C 1015.460938 922.570312 1028.421875 909.609375 1028.421875 893.628906 C 1028.421875 877.640625 1015.460938 864.679688 999.46875 864.679688 "/>
<path fill-rule="evenodd" fill="rgb(30.200195%, 30.200195%, 30.200195%)" fill-opacity="1" d="M 1070.78125 864.679688 C 1054.789062 864.679688 1041.828125 877.640625 1041.828125 893.628906 C 1041.828125 909.609375 1054.789062 922.570312 1070.78125 922.570312 C 1086.761719 922.570312 1099.71875 909.609375 1099.71875 893.628906 C 1099.71875 877.640625 1086.761719 864.679688 1070.78125 864.679688 "/>
<path fill-rule="evenodd" fill="rgb(30.200195%, 30.200195%, 30.200195%)" fill-opacity="1" d="M 1142.078125 864.679688 C 1126.101562 864.679688 1113.140625 877.640625 1113.140625 893.628906 C 1113.140625 909.609375 1126.101562 922.570312 1142.078125 922.570312 C 1158.070312 922.570312 1171.03125 909.609375 1171.03125 893.628906 C 1171.03125 877.640625 1158.070312 864.679688 1142.078125 864.679688 "/>
<path fill-rule="evenodd" fill="rgb(30.200195%, 30.200195%, 30.200195%)" fill-opacity="1" d="M 928.164062 1577.746094 C 912.175781 1577.746094 899.214844 1590.707031 899.214844 1606.695312 C 899.214844 1622.679688 912.175781 1635.640625 928.164062 1635.640625 C 944.148438 1635.640625 957.109375 1622.679688 957.109375 1606.695312 C 957.109375 1590.707031 944.148438 1577.746094 928.164062 1577.746094 "/>
<path fill-rule="evenodd" fill="rgb(30.200195%, 30.200195%, 30.200195%)" fill-opacity="1" d="M 999.46875 1577.746094 C 983.484375 1577.746094 970.523438 1590.707031 970.523438 1606.695312 C 970.523438 1622.679688 983.484375 1635.640625 999.46875 1635.640625 C 1015.460938 1635.640625 1028.421875 1622.679688 1028.421875 1606.695312 C 1028.421875 1590.707031 1015.460938 1577.746094 999.46875 1577.746094 "/>
<path fill-rule="evenodd" fill="rgb(30.200195%, 30.200195%, 30.200195%)" fill-opacity="1" d="M 1070.78125 1577.746094 C 1054.789062 1577.746094 1041.828125 1590.707031 1041.828125 1606.695312 C 1041.828125 1622.679688 1054.789062 1635.640625 1070.78125 1635.640625 C 1086.761719 1635.640625 1099.71875 1622.679688 1099.71875 1606.695312 C 1099.71875 1590.707031 1086.761719 1577.746094 1070.78125 1577.746094 "/>
<path fill-rule="evenodd" fill="rgb(30.200195%, 30.200195%, 30.200195%)" fill-opacity="1" d="M 1142.078125 1577.746094 C 1126.101562 1577.746094 1113.140625 1590.707031 1113.140625 1606.695312 C 1113.140625 1622.679688 1126.101562 1635.640625 1142.078125 1635.640625 C 1158.070312 1635.640625 1171.03125 1622.679688 1171.03125 1606.695312 C 1171.03125 1590.707031 1158.070312 1577.746094 1142.078125 1577.746094 "/>
</svg>
